<svg id="_0195_family_1" xmlns="http://www.w3.org/2000/svg" xmlns:xlink="http://www.w3.org/1999/xlink" viewBox="0 0 500 500" data-imageid="family-1-25" imageName="Family 1" class="illustrations_image" style="width: 144px;"><defs><style>.cls-1_family-1-25{fill:none;}.cls-1_family-1-25,.cls-2_family-1-25,.cls-3_family-1-25,.cls-4_family-1-25,.cls-5_family-1-25,.cls-6_family-1-25,.cls-7_family-1-25,.cls-8_family-1-25,.cls-9_family-1-25,.cls-10_family-1-25{stroke-width:0px;}.cls-2_family-1-25{fill:url(#linear-gradient);}.cls-3_family-1-25{opacity:.55;}.cls-3_family-1-25,.cls-7_family-1-25{isolation:isolate;}.cls-3_family-1-25,.cls-7_family-1-25,.cls-10_family-1-25{fill:#68e1fd;}.cls-4_family-1-25{fill:url(#linear-gradient-4-family-1-25);}.cls-5_family-1-25{fill:url(#linear-gradient-2-family-1-25);}.cls-6_family-1-25{fill:url(#linear-gradient-3-family-1-25);}.cls-7_family-1-25{opacity:.24;}.cls-8_family-1-25{fill:#606161;}.cls-9_family-1-25{fill:#ffb4a3;}</style><linearGradient id="linear-gradient-family-1-25" x1="391.42" y1="3799.14" x2="392.94" y2="3827.25" gradientTransform="translate(-32.54 4025.99) scale(1 -1)" gradientUnits="userSpaceOnUse"><stop offset=".12" stop-color="#010101" stop-opacity="0"/><stop offset=".95" stop-color="#010101"/></linearGradient><linearGradient id="linear-gradient-2-family-1-25" x1="246.22" y1="3697.92" x2="251.62" y2="3708.93" xlink:href="#linear-gradient-family-1-25"/><linearGradient id="linear-gradient-3-family-1-25" x1="157.07" y1="3842.14" x2="149.65" y2="3708.7" xlink:href="#linear-gradient-family-1-25"/><linearGradient id="linear-gradient-4-family-1-25" x1="158.68" y1="3797.16" x2="162.57" y2="3819.74" xlink:href="#linear-gradient-family-1-25"/></defs><g id="background_family-1-25"><path class="cls-7_family-1-25 targetColor" d="M485.23,379.57c-14.55,27.65-38.12,49.79-68.14,57.94-37.48,10.14-77.44-2.05-116.04,2.08-24.41,2.6-47.63,11.67-71.48,17.53-73.22,18.02-159.16,1.2-206.22-57.69-2.98-3.75-5.76-7.66-8.31-11.71-17.16-27.23-24.61-61.52-11.73-90.59,9.79-22.04,29.07-37.14,43.36-55.94,12.74-16.74,17.83-32.86,22.42-52.83,10.06-43.64,47-74.04,88.26-88.54,39.67-13.91,82.79-14.3,124.68-11.09,30.05,2.22,60.65,6.43,87.66,19.71,24.94,12.23,45.66,31.66,64.04,52.51,36.64,41.46,66.34,92.5,68.04,147.88.64,24.61-5.06,48.97-16.55,70.74Z" style="fill: rgb(255, 184, 78);"/><path class="cls-7_family-1-25 targetColor" d="M486.44,367.89c-.36,3.86-.74,7.77-1.21,11.68-14.55,27.65-38.12,49.79-68.14,57.94-37.48,10.14-77.44-2.05-116.04,2.08-24.41,2.6-47.63,11.67-71.48,17.53-73.22,18.02-159.16,1.2-206.22-57.69-2.98-3.75-5.76-7.66-8.31-11.71,2.54-1.89,5.96-3.34,10.35-4.22,32.98-6.66,76.78,3.2,110.68,3.7,75.52,1.09,150.98-1.19,226.38-6.86,11.05-.85,123.49-7.31,123.98-12.45Z" style="fill: rgb(255, 184, 78);"/><path class="cls-7_family-1-25 targetColor" d="M486.44,367.89c-.36,3.86-.74,7.77-1.21,11.68-14.55,27.65-38.12,49.79-68.14,57.94-37.48,10.14-77.44-2.05-116.04,2.08-24.41,2.6-47.63,11.67-71.48,17.53-73.22,18.02-159.16,1.2-206.22-57.69-2.98-3.75-5.76-7.66-8.31-11.71,2.54-1.89,5.96-3.34,10.35-4.22,32.98-6.66,76.78,3.2,110.68,3.7,75.52,1.09,150.98-1.19,226.38-6.86,11.05-.85,123.49-7.31,123.98-12.45Z" style="fill: rgb(255, 184, 78);"/><path class="cls-3_family-1-25 targetColor" d="M93.97,420.5c23.5,2.49,46.88-4.9,70.5-5.82,23.13-.89,45.99,4.44,69,6.9,17.45,1.87,35.04,2.09,52.59,2.31l98.48,1.24c5.52.07,11.26.1,16.27-2.27,5.01-2.37,8.94-7.88,7.65-13.24-47.49,2.59-95.1,1-142.52-2.17-24.07-1.61-48.07-3.64-72.14-5.73-21.05-1.83-43.41-6.06-64.54-3.93-16.38,1.66-34.84,10.56-49.34,17.7,3.56,3.51,9.15,4.5,14.05,5.01Z" style="fill: rgb(255, 184, 78);"/><path class="cls-7_family-1-25 targetColor" d="M199.01,188.07s5.68-18.57,20.38-16.27c14.7,2.3,17.19,13.48,17.19,13.48,0,0,7.85-20.5,28.3-12.85,23.99,8.96,4.96,36.91,2.6,38.79-2.36,1.87-33.36,31.37-33.36,31.37,0,0-32.54-32.62-34.36-36s-3.69-9.73-.74-18.51Z" style="fill: rgb(255, 184, 78);"/></g><g id="character_4_family-1-25"><path class="cls-8_family-1-25" d="M334.32,305.17c-1.78,5.55-2.22,11.44-2.63,17.26-1.51,21.88-2.75,43.77-3.7,65.68-.34,7.74,1.24,17.94-5.52,23.47-1.86,1.52-4.17,2.58-5.56,4.55-.2.25-.33.55-.36.87,0,.95,1.26,1.27,2.22,1.28,3.67,0,7.34-.03,11.01-.1,1.66-.04,3.57-.21,4.57-1.54.85-1.14.74-2.69.85-4.1.32-3.58,3.29-6.93,4.1-10.44,11.68-50.25,13.11-62.13,18.07-71.22,2.12,4.44,4.44,15.34,4.86,20.26.99,11.3,3.05,19.97,3.62,31.33.27,5.47-.05,11.09.53,16.53.58,5.44,2.29,11.15,3.94,16.42.17,1.39,1.43,2.38,2.82,2.22,4.76.41,9.54.47,14.31.18.65.01,1.28-.14,1.86-.44,1.18-.74,1.18-2.57.44-3.76s-1.99-1.94-3.09-2.81c-4.15-3.4-6.34-8.64-5.86-13.99.33-2.91.48-5.83.45-8.76-.08-3.63-.07-7.27,0-10.91.29-14.56,1.48-29.09,1.34-43.64-.02-8.97-.85-17.92-2.49-26.74-.25-1.26-.58-2.63-1.6-3.42s-2.28-.78-3.5-.78h-27.84c-4.67,0-9.06-.11-12.84,2.6Z"/><path class="cls-10_family-1-25 targetColor" d="M317.72,262.01l4.72-15.08c1.64-5.25,3.37-10.65,6.88-14.89,5.33-6.42,13.83-9.09,21.83-11.45,1.86-.55,3.82-.71,5.75-.47,6.66.84,15.39-1.02,21.97,2.74,3.79,2.17,6.38,5.92,8.65,9.61,13.93,22.95,20.96,49.42,20.27,76.25-.04,1.33-.17,2.83-1.21,3.65-.56.38-1.19.63-1.85.74-1.52.37-4.18-.61-6.49-1.17-1.98-.5-3.42-2.21-3.56-4.25-.43-6.14.24-10.83-1.05-17.66-1.99-10.58-4.44-21.53-11.09-29.98l.74,32.96c.06,2.69.11,5.45-.74,8.01-1.48,4.6-5.72,7.93-10.35,9.43s-9.56,1.41-14.39,1.01c-4.89-.42-9.74-1.16-14.53-2.22-3.91-.85-8.14-2.14-10.35-5.44-1.72-2.49-1.98-5.69-1.97-8.71.04-5.01.71-10,1.99-14.84,1.9-7.28,5.07-15.46,1.09-21.85-4.59,6.66-6.37,14.79-7.13,22.86-.42,4.49-5.29,18.93-10.98,19.58-2.9.37-5.78-.77-7.63-3.03-2.74-3.57-1.35-7.85.04-11.65,3.54-9.67,6.34-14.34,9.41-24.16Z" style="fill: rgb(255, 184, 78);"/><path class="cls-9_family-1-25" d="M366.64,228.26c-.7,1.55-1.69,2.96-2.91,4.15-.89,1.01-2.24,1.49-3.57,1.26-3.7-.31-6.91-2.96-8.88-6.14-.3-.46-.54-.95-.7-1.48-.11-1.04.04-2.1.43-3.07.46-2.02.71-4.07.74-6.14h0c0-.3-.04-.65-.04-1.04-.07-1.07-.11-2.26.46-3.11,1.42-2.31,5.99-2.57,8.25-2.07,1.74.29,3.28,1.3,4.22,2.8.36.74.56,1.56.57,2.38.06,1.02.06,2.05,0,3.07-.11,1.74.25,3.47,1.04,5.03.17.26.33.53.47.81.14.2.24.42.3.65.2.98.07,2-.38,2.89Z"/><path class="cls-2_family-1-25" d="M366.76,224.8s-3.38,1.48-9.1.38c-4.49-.88-5.6-6.06-5.87-8.36h0c-.04-.34-.07-.69-.07-1.04h13.54c.06,1.02.06,2.05,0,3.07-.11,1.74.25,3.47,1.04,5.03.17.26.33.53.47.81v.11Z"/><path class="cls-9_family-1-25" d="M343.83,200.93c.59,4.56,1.86,9.18,4.72,12.78,2.86,3.6,7.56,6,12.08,5.13,1.33-.3,2.63-.75,3.86-1.34.72-.27,1.39-.65,1.97-1.15.61-.66,1.08-1.44,1.39-2.29.83-1.76,1.54-3.59,2.1-5.46.56-2.27.91-4.59,1.04-6.93.28-2.28.28-4.59,0-6.87-.54-3.25-2.13-6.24-4.53-8.51-.43-.44-.93-.81-1.48-1.08-.73-.28-1.5-.42-2.28-.43-2.41-.23-4.84-.21-7.25.07-2.42.3-4.71,1.27-6.6,2.81-1.83,1.74-3.17,3.92-3.9,6.34-.39,1.12-.74,2.22-1.14,3.35-.4,1.13-.16,2.39,0,3.56Z"/><path class="cls-8_family-1-25" d="M341.25,187.75c-.03-1.05.05-2.1.25-3.13.05-.46.29-.87.66-1.15.24-.11.48-.2.74-.25,1.26-.38,2.02-1.62,2.79-2.69,5.47-7.53,16-9.21,23.53-3.74.19.14.38.29.57.43.87.65,1.63,1.45,2.22,2.36.67,1.09,1.01,2.38,1.76,3.42.86,1.19,2.22,1.97,3.04,3.19,1.21,1.77,1.1,4.15.41,6.18s-1.86,3.84-2.74,5.79-1.69,4.29-3.7,4.96c-.2-.55-.24-1.14-.12-1.72.32-2.99.21-6.02-.33-8.98-.02-.26-.12-.5-.3-.7-.22-.14-.48-.2-.74-.18-1.59,0-3.17.27-4.76.22-3.7-.12-7.17-1.87-10.83-2.47-1.49-.34-3.05-.17-4.44.48-1.04.69-1.89,1.62-2.48,2.71-1,1.43-1.68,3.06-1.98,4.79-.03.74-.11,1.48-.24,2.22-.44,1.8-1.31,1.09-1.83-.19-.48-1.22-.83-2.48-1.03-3.77-.38-2.58-.54-5.18-.48-7.79Z"/><path class="cls-9_family-1-25" d="M398.08,326.85c.11.46.34.88.65,1.23.63.48,1.46.63,2.22.4,1.89-.45,3.57-1.54,4.76-3.08,1.18-1.53,2.08-3.26,2.68-5.1.51-1.26.77-2.61.78-3.96-.08-1.14-.37-2.26-.87-3.3-1.02-2.28-2.75-4.4-5.13-5.18-3.28-.85-6.63,1.12-7.48,4.4,0,.01,0,.02,0,.04-.99,4.84.86,10.06,2.4,14.55Z"/><path class="cls-9_family-1-25" d="M304.92,307.39c.06,1.42.21,2.92,1.09,4.03,1.23,1.59,3.52,1.88,5.11.65.3-.23.56-.51.77-.82.83-1.2.87-2.77,1.54-4.07.67-1.29,2.05-2.34,2.62-3.77,1.44-3.56-2.85-7.91-6.38-6.48-4.16,1.69-4.91,6.58-4.75,10.47Z"/></g><g id="character_3_family-1-25"><path class="cls-9_family-1-25" d="M273.9,301.08c.28-.32.7-.48,1.12-.42.31.11.54.36.64.67.08.31.1.63.07.95,0,.75-.2,1.49-.58,2.14-.33.42-.72.79-1.15,1.09-.09.09-.21.14-.34.16-.28,0-.41-.33-.45-.61-.17-1.32-.33-2.95.71-3.97Z"/><path class="cls-9_family-1-25" d="M252.31,303.69c-.31.25-.48.63-.44,1.03.04.39.18.76.41,1.08.43.63,1.05,1.11,1.77,1.38.24.13.54.13.78,0,.12-.12.2-.28.21-.44.07-.5,0-1.01-.2-1.48-.32-.89-1.38-2.37-2.54-1.56Z"/><path class="cls-9_family-1-25" d="M252.31,383.68l-1.89,27.15s3.11,1.35,5,.54,6.48-27.96,6.48-27.96l-9.59.27Z"/><path class="cls-9_family-1-25" d="M280.95,382.19l1.89,27.15s-3.11,1.35-4.99.54-6.49-27.96-6.49-27.96l9.59.27Z"/><path class="cls-8_family-1-25" d="M250.78,364.74s-1.3,18.26-.36,19.34c.95,1.08,12.29.27,12.29.27l3.78-9.19,3.78,10.13s11.09,0,11.62-.81-.16-22.54-2.31-23.49c-2.15-.95-28.8,3.74-28.8,3.74Z"/><path class="cls-10_family-1-25 targetColor" d="M261.52,317.43c-3.8.33-7.81.74-10.88,3.02-1.81,1.46-3.3,3.27-4.38,5.32-2.61,4.48-4.22,7.86-6.66,12.44-1.3,2.45,6.94,7.34,6.94,7.34.92-.44,1.65-1.21,2.05-2.15.52,6.73,1.19,12.99,1.71,19.72-.01.58.15,1.14.47,1.63.61.74,1.77.68,2.73.55l23.96-3.44c1.34.14,2.53-.84,2.67-2.18.03-.26.01-.53-.05-.78l.29-18.49c-.05-1.54.14-3.07.55-4.56.54-1.4,1.32-2.71,2.3-3.85,1.65-2.13,2.49-.38,4.38-2.31.39-.32.65-.77.74-1.27-.04-.49-.26-.95-.61-1.29-2.39-2.96-1.44-8.06-3.84-11.03-5.74,2.92-15.91.78-22.35,1.34Z" style="fill: rgb(255, 184, 78);"/><path class="cls-9_family-1-25" d="M230.06,354.2c-.89,1.22-1.55,2.59-1.96,4.05-.4,1.49.03,3.07,1.12,4.16.97.72,2.17,1.06,3.37.96,1.48,0,3.11-.47,3.79-1.78.3-.84.49-1.72.57-2.61.53-2.51,2.74-4.23,4.55-6.06,1.16-1.17,2.19-2.47,3.08-3.86,1.32-2.08,2.32-4.58,1.73-6.96-.44-1.68-1.76-2.98-3.44-3.41-2.26-.45-3.14,1.48-4.35,3.08-3.05,3.99-5.76,8.21-8.47,12.43Z"/><path class="cls-9_family-1-25" d="M260.95,316.94c-.27,1.69-.21,3.7,1.11,4.76.54.4,1.16.68,1.82.81.48.13.98.19,1.48.18,1.83-.09,3.32-1.64,3.92-3.37.48-1.77.61-3.62.38-5.44,0-.97-.19-1.93-.57-2.83-.83-1.46-2.45-2.3-4.13-2.14-4.81.42-3.47,4.57-4.01,8.02Z"/><path class="cls-9_family-1-25" d="M255.51,309.74c.55,1.48,1.38,2.84,2.45,4,1.52,1.51,3.58,2.34,5.72,2.28,3.41-.1,6.44-2.52,8.08-5.51,1.64-2.99,2.12-6.49,2.26-9.9.18-1.98-.02-3.97-.6-5.87-1.22-3.1-3.92-5.38-7.19-6.06-3.26-.61-6.62.1-9.36,1.97-.91.58-1.7,1.33-2.31,2.22-.77,1.41-1.23,2.98-1.33,4.59-.24,1.04-.29,2.12-.13,3.18.22.87.42,1.66.56,2.56.35,2.24.96,4.44,1.83,6.53Z"/><path class="cls-8_family-1-25" d="M249.86,298.56c-1.16-2.01-1.85-4.25-2.02-6.57,0-.86.1-1.87.85-2.3.28-.13.57-.24.87-.33.75-.4,1.4-.94,1.93-1.6,1.35-1.21,2.87-2.21,4.52-2.96.8-.46,1.66-.81,2.56-1.04.73-.11,1.48-.14,2.22-.09,2.88.11,5.98.42,8.14,2.32.32.28.61.6.96.85,1.08.78,2.56.91,3.57,1.78.48.44.86.99,1.12,1.59.87,1.84,1.16,3.9.84,5.92-.16.84-.37,1.68-.63,2.49l-.81,2.75c-1.14-2.84-2.35-5.65-3.65-8.42-1.63.62-3.34,1.04-5.07,1.25-2,.16-4.08-.24-5.98.41-1.33.56-2.52,1.39-3.51,2.43-.47.41-.88.89-1.21,1.42-.94,1.72,0,3.83-.83,5.52-.74-.2-1.58-1.9-2.03-2.53-.67-.94-1.28-1.91-1.84-2.91Z"/><path class="cls-9_family-1-25" d="M292.99,312.62s-6.89,3.65-9.19,4.32c-2.3.67-.18,11.17,1.89,10.67s16.07-11.09,17.15-11.74,3.24-2.16,3.24-2.16c0,0,3.38.27,6.49-4.19,3.11-4.45-.14-8.92-.68-9.05s-2.66-2.03-4-1.58c-1.35.45-4.87,5.13-4.87,5.13,0,0-5.33,7.23-10.04,8.6Z"/><path class="cls-8_family-1-25" d="M251.7,408.02c-.57-.05-1.15-.03-1.72.07-.4.14-.78.34-1.12.6l-4.1,2.8c-.61.41-1.28.95-1.28,1.68,0,.33.12.64.33.89.81,1.05,2.37,1.07,3.7,1l6.07-.36c1.03.14,2.02-.44,2.41-1.41.74-1.26,2.12-3.22,1.12-4.66-1.21-1.72-3.79-.62-5.41-.62Z"/><path class="cls-8_family-1-25" d="M281.01,408.02c.57-.05,1.15-.03,1.72.07.4.14.78.34,1.12.6l4.1,2.8c.61.41,1.27.95,1.28,1.68,0,.33-.13.64-.33.89-.81,1.05-2.36,1.07-3.7,1l-6.07-.36c-1.03.14-2.02-.44-2.4-1.41-.74-1.26-2.12-3.22-1.13-4.66,1.21-1.72,3.79-.62,5.41-.62Z"/></g><g id="character_2_family-1-25"><path class="cls-9_family-1-25" d="M201.75,404.81c-.08,1.48-.18,3.02.51,4.32,1,1.87,3.32,2.58,5.19,1.58.57-.3,1.05-.74,1.4-1.28.48-.84.8-1.76.92-2.72,1.05-5.39,1.72-10.86,1.99-16.35.07-1.52,0-3.31-1.24-4.21-.9-.51-1.93-.72-2.96-.58-1.59.04-3.7,0-5.09.92-1.71,1.12-1.04,2.43-.89,4.3.38,4.66.43,9.35.16,14.02Z"/><path class="cls-9_family-1-25" d="M218.22,404.08c.09,1.48.17,3.02,1.01,4.23,1.23,1.74,3.63,2.15,5.37.92.52-.37.94-.85,1.22-1.42.38-.89.58-1.84.59-2.81.4-5.48.4-10.98,0-16.46-.1-1.52-.39-3.29-1.73-4.04-.94-.39-1.97-.46-2.96-.22-1.58.22-3.7.45-4.95,1.52-1.57,1.32-.74,2.53-.37,4.37.93,4.59,1.53,9.23,1.81,13.9Z"/><path class="cls-9_family-1-25" d="M229.38,339.09c2.07,4.1,3.25,8.59,5.1,12.79.98,2.22,2.17,4.44,2.36,6.84.19,2.4-.95,5.18-3.27,5.92-2.12.58-4.32-.62-4.98-2.72-.18-1.08-.24-2.18-.17-3.28-.1-2.63-1.41-5.04-2.51-7.4-2.51-5.43-5.26-12.23-5.92-18.22-.43-4.01,2.96-1.85,4.69-.27,1.95,1.81,3.54,3.95,4.71,6.34Z"/><path class="cls-8_family-1-25" d="M211.63,297.59c-3.04,1.53-5.39,4.15-6.58,7.33-.93,2.65-.92,5.51-1.31,8.29-.33,2.34-.93,4.62-1.81,6.81-.81,2.02-1.86,4.08-1.6,6.24.25,1.52.97,2.93,2.06,4.03,3.46,3.77,9.16,5.01,14.14,3.82,1.16-.23,2.25-.71,3.2-1.41,1.7-1.36,2.37-3.63,2.63-5.79.26-2.16.23-4.38.92-6.44.56-1.44,1.26-2.81,2.11-4.1,1.22-2.06,2.33-4.18,3.34-6.35.41-.8.71-1.64.9-2.51.38-2.59-.75-5.17-2.9-6.66-1.22-.87-2.66-1.38-3.94-2.15-.85-.52-1.63-1.15-2.51-1.62-2.51-1.3-6.29-.75-8.65.5Z"/><path class="cls-10_family-1-25 targetColor" d="M201.76,340.78c-.35,1.82-.85,3.62-1.48,5.36-2.08,6.36-4.16,12.72-6.29,19.06-2.06,6.45-4.5,12.77-7.29,18.94,7.79,3.62,16.12,7.28,24.64,6.16,3-.39,5.92-1.38,8.93-1.77,3.01-.38,6.23-.14,9.33-.4s6.32-1.11,8.54-3.29l-4.5-8.79c-1.64-3.21-3.28-6.43-4.62-9.78-2.54-6.39-3.92-13.18-4.08-20.06-.09-3.56.15-7.17-.6-10.65-.26-1.69-1.04-3.25-2.22-4.48-1.58-1.48-3.85-1.82-5.98-2.03-3.08-.3-9.76-1.67-12.46.3-2.71,1.97-1.43,8.48-1.92,11.41Z" style="fill: rgb(255, 184, 78);"/><path class="cls-9_family-1-25" d="M206.54,313.77c-.31.18-.5.51-.51.87,0,.35.08.69.25,1,.32.6.81,1.09,1.41,1.41.21.14.47.16.7.07.12-.09.2-.22.24-.36.13-.44.13-.9,0-1.34-.23-.81-.98-2.23-2.09-1.63Z"/><path class="cls-9_family-1-25" d="M225.89,313.81c.28-.26.67-.36,1.04-.25.26.13.44.37.48.66.04.28.03.57-.04.85-.08.66-.34,1.29-.74,1.82-.33.34-.71.62-1.13.84-.09.07-.21.11-.33.1-.24,0-.32-.34-.33-.58-.04-1.21.01-2.65,1.04-3.43Z"/><path class="cls-9_family-1-25" d="M211.19,326.49c-.24,1.48-.18,3.27.99,4.23.48.36,1.03.61,1.62.74.43.12.88.17,1.33.16,1.63-.07,2.96-1.48,3.5-3,.43-1.58.54-3.22.33-4.84,0-.86-.17-1.72-.51-2.51-.75-1.3-2.2-2.04-3.7-1.89-4.28.33-3.08,4.02-3.56,7.11Z"/><path class="cls-5_family-1-25" d="M215.13,327.52c.53.25,1.1.39,1.68.41.59.01,1.16-.22,1.57-.64.46-.64.65-1.44.55-2.22,0-.28-.04-.56-.14-.81-.18-.34-.48-.6-.84-.74-.77-.31-1.59-.47-2.42-.45-.95-.03-1.91.02-2.85.14-1.01.13-1.53.19-.99,1.25.75,1.39,1.97,2.48,3.45,3.06Z"/><path class="cls-9_family-1-25" d="M208.67,319.46c.33,1.36.91,2.65,1.73,3.79,1.17,1.5,2.92,2.46,4.81,2.64,3.02.28,5.96-1.53,7.74-3.99,1.78-2.46,2.57-5.5,3.07-8.5.37-1.72.41-3.51.1-5.24-.74-2.88-2.88-5.19-5.69-6.13-2.81-.9-5.86-.63-8.48.74-.86.41-1.63.99-2.26,1.71-.83,1.16-1.4,2.5-1.67,3.91-.33.89-.48,1.84-.46,2.8.1.78.19,1.48.21,2.32.06,2.01.35,4.02.88,5.96Z"/><path class="cls-8_family-1-25" d="M206.9,312.46c.1.79.54,1.5,1.21,1.94.39.16.81.25,1.24.24,1.21.15,2.44.04,3.61-.31,1.19-.38,2.02-1.48,2.06-2.73-.12.66-.14,1.52.47,1.79.18.07.37.11.57.1l2.66.12c.74.08,1.49.02,2.22-.16.73-.2,1.32-.75,1.55-1.48.49.78,1.53,1,2.46,1.05.48.06.96,0,1.41-.19.87-.44,1.11-1.56,1.24-2.53.3-1.38.27-2.82-.07-4.19-.56-1.34-1.46-2.5-2.61-3.38-.89-.84-1.91-1.54-3.02-2.06-1.46-.54-3.02-.75-4.57-.63-1.72.05-3.42.28-5.1.67-1.54.27-2.98.96-4.16,2-1.31,1.32-1.08,2.59-1.07,4.25.03,1.89-.52,3.54-.07,5.49Z"/><path class="cls-9_family-1-25" d="M192.96,323.6c-2.74-3.04-5.12-6.47-8.42-8.88-.66-.57-1.49-.93-2.36-1.01-1.58-.04-2.83,1.54-2.96,3.11-.13,1.57.5,3.11,1.21,4.52,4.18,8.34,10.58,15.36,18.49,20.3.53.4,1.17.64,1.84.68,1.32-.04,2.12-1.48,2.5-2.74.58-1.98.78-4.04.59-6.09-.22-2.46-.27-3.09-2.37-3.88-3.3-1.26-6.22-3.33-8.52-6.01Z"/><path class="cls-8_family-1-25" d="M200.11,407.79c-1.14.86-2.23,1.77-3.27,2.75-.5.41-1.05.89-1.05,1.54.03.5.34.95.79,1.17.45.21.93.33,1.43.36,2.34.24,4.71.18,7.03-.17.64-.08,1.27-.23,1.87-.47,1.11-.55,2-1.47,2.49-2.61,2.73-5.84-6.41-4.49-9.3-2.56Z"/><path class="cls-8_family-1-25" d="M227.16,407.79c1.15.86,2.24,1.78,3.29,2.75.49.41,1.04.89,1.04,1.54-.03.5-.33.95-.79,1.17-.45.21-.93.33-1.43.36-2.34.24-4.71.18-7.03-.17-.64-.08-1.27-.23-1.87-.47-1.11-.55-1.99-1.48-2.49-2.61-2.74-5.84,6.4-4.49,9.28-2.56Z"/></g><g id="character_1_family-1-25"><path class="cls-8_family-1-25" d="M136.72,191.68c-1.52-2.03-3.54-3.63-5.87-4.64-4.69-2.18-10.1-2.18-14.79,0-4.68,2.27-7.88,6.77-8.48,11.94-.16,1.73,0,3.47-.1,5.18-.41,6.01-4.09,11.27-5.58,17.11-.84,3.27-.98,6.72-2.06,9.92-.82,2.44-2.22,4.82-2,7.4.19,1.51.74,2.96,1.61,4.21,3.27,5.11,9.78,8.56,15.53,6.62,1.58-.53,3.01-1.43,4.57-2.03,4.22-1.6,8.92-.84,13.45-.81,1.95.11,3.89-.22,5.69-.96,3.06-1.54,4.85-4.8,4.5-8.2-.32-1.76-.85-3.47-1.58-5.1-1.7-4.62-2.35-9.55-1.89-14.45.23-2.49.74-4.95.74-7.44,0-3.3-2.31-5.77-1.82-8.78.55-3.54.21-6.97-1.93-9.95Z"/><path class="cls-8_family-1-25" d="M136.86,191.61c-1.52-2.02-3.54-3.62-5.86-4.64-4.69-2.18-10.1-2.18-14.79,0-4.68,2.27-7.88,6.77-8.47,11.94-.16,1.73,0,3.47-.11,5.18-.4,6.01-4.09,11.27-5.58,17.1-.84,3.28-.98,6.72-2.06,9.93-.83,2.43-2.22,4.82-2,7.4.18,1.52.74,2.96,1.61,4.22,3.26,5.1,9.77,8.56,15.53,6.66,1.58-.54,3.01-1.43,4.57-2.03,4.23-1.6,8.93-.84,13.45-.81,1.95.1,3.9-.22,5.7-.96,3.05-1.54,4.84-4.8,4.5-8.2-.32-1.76-.85-3.48-1.58-5.11-1.7-4.61-2.35-9.55-1.89-14.44.24-2.49.74-4.95.74-7.44,0-3.3-2.31-5.77-1.82-8.79.53-3.58.21-7-1.95-9.99Z"/><path class="cls-6_family-1-25" d="M107.87,227.22c.86-2.17,2.27-4.11,2.96-6.35.84-2.73.54-5.67.64-8.52.1-2.85.74-5.92,2.96-7.77,1.73-1.42,4.08-1.78,6.32-1.94,3.07-.21,6.29-.09,8.99,1.36,4.28,2.29,6.32,7.44,6.58,12.29.15,2.63-.12,5.3.44,7.88.3.94.43,1.92.38,2.91-.21.93-.68,1.78-1.34,2.46-4.64,5.49-11.77,7.92-18.74,8.53-2.22.19-6.99,1.01-8.88-.5-2.32-1.96-1.27-7.94-.32-10.35Z"/><path class="cls-9_family-1-25" d="M122.97,224.76c.05-.88-.85-4.99-.85-5.87,0-2.04,2-.78,3.87-1.6,1.87-.81,5.47-1.07,5.69.95.57,5.07.15,6.91,1.22,8.07.96,1.04,1.27,2.3.37,3.39-.87,1.13-2.11,1.91-3.51,2.22-1.58.3-3.19-.26-4.7-.81-1.09-.39-3.28-1.17-3.56-2.51s1.38-2.4,1.47-3.85Z"/><path class="cls-4_family-1-25" d="M122.3,220.53s.74,4.27,4.25,4.76c1.88.35,3.81.14,5.57-.61l.13-5.18-9.95,1.02Z"/><path class="cls-9_family-1-25" d="M114.38,384.62c.47,7.2.9,13.14,1.71,16.27.51,1.95,1.8,3.99,3.79,4.34,1.43.15,2.83-.45,3.7-1.59.84-1.14,1.43-2.44,1.73-3.82,1.48-5.41.41-32.85,2.83-43.99.15-.7.05-1.42-.28-2.06-.26-.44-.61-.82-1.04-1.12-3.32-2.54-14.43-4.62-15.72,1.3-.8,3.62,2.99,26.26,3.28,30.66Z"/><path class="cls-9_family-1-25" d="M145.62,400.89c-.68,1.9-1.8,3.99-3.79,4.34-1.43.15-2.83-.45-3.7-1.59-.84-1.14-1.43-2.44-1.73-3.82-1.48-5.41-1.68-11.09-1.87-16.67l-.96-27.32c-.08-.7.02-1.41.29-2.06.26-.44.61-.82,1.04-1.12,3.32-2.54,12.25-5.47,13.53.45.78,3.62-.4,40.99-2.8,47.78Z"/><path class="cls-9_family-1-25" d="M116.49,228c-2.68,1.43-5.07,2.96-6.8,5.44-1.38,2.11-2.53,4.35-3.42,6.71-9.42,22.81-14.22,47.84-28,68.32-1.99,2.87-3.13,6.24-3.31,9.73-.07,1.54.06,3.43,1.48,4.1.94.32,1.97.23,2.83-.25,3.55-1.57,6.25-4.61,7.4-8.32.15-.68.4-1.33.74-1.93.27-.42.66-.74.96-1.18,1.28-1.67,1.09-3.99,1.34-6.08.33-2.74,1.48-5.3,2.67-7.81,4.75-10.18,9.63-20.29,14.65-30.32,1.87-3.52,3.49-7.16,4.85-10.9,1.01-3,1.66-6.09,2.51-9.14,2.89-10.6,5.33-17.97,2.1-18.36Z"/><path class="cls-9_family-1-25" d="M137.09,226.02s16.19,4.82,20.87,18.15c4.68,13.33,19.09,59.78,19.09,59.78,0,0,7.8,8.19,7.5,10.76-.3,2.57-.4,7.88-4.13,6.61-3.74-1.26-10.48-5.85-11.02-9.36-.33-2.96-.42-5.94-.27-8.91l-18.97-45.65-6.66-8.37s-10.08-18.73-6.41-23.01Z"/><path class="cls-10_family-1-25 targetColor" d="M116.49,228c.67,5.09-.1,10.26-2.22,14.93-.98,1.87-1.85,3.8-2.6,5.78-2.66,8.49,3.46,17.75,1.37,26.38-5.92,24.31-16.92,47.53-17.8,72.53-.08.62.03,1.26.32,1.82.51.6,1.21.99,1.98,1.11,15.53,4.24,31.8,8.33,47.47,4.81,7.04-1.58,13.65-4.64,20.2-7.68,1.48-.7,3.14-1.55,3.7-3.11.23-.87.26-1.78.09-2.67-1-8.53-2.45-17.07-5.52-25.09-3.26-8.49-8.27-16.18-12.26-24.35-3.99-8.17-7-17.24-5.79-26.26.8-5.98,3.37-12.28.88-17.75-.86-1.89-2.22-3.47-3.4-5.18-2.38-3.55-3.78-7.66-4.06-11.92-.13-1.92-.17-4.19-1.75-5.3-1.96-1.38-4.62.1-6.45,1.63-1.83,1.54-4.16,3.29-6.38,2.38-1.15-.47-1.89-1.57-2.83-2.38s-3.98-.48-4.94.31Z" style="fill: rgb(255, 184, 78);"/><path class="cls-1_family-1-25" d="M115.75,400l-.38.55"/><path class="cls-8_family-1-25" d="M117.6,400.73c-.39-.19-.84-.22-1.26-.08-.46.23-.58.81-.7,1.29-.74,2.45-2.34,4.56-4.51,5.92-1,.6-1.94,1.27-2.83,2.02-.9.76-1.4,1.9-1.35,3.08,0,.12.04.23.11.33.13.12.3.18.48.17,2.93.18,5.86.2,8.79.05,2.96-.1,6.07-.24,8.56-1.84.29-.18.54-.41.74-.69.27-.51.38-1.09.33-1.67v-5.04c0-.88.48-3.65-.38-4.13s-2.71.81-3.53.95c-1.49.21-3,.09-4.44-.36Z"/><path class="cls-8_family-1-25" d="M137.87,398.9c2.29.7,4.87,1.05,6.97-.07.46-.24,1.01-.56,1.48-.3.19.13.34.31.42.53.74,1.48.44,3.22.99,4.76.64,1.77,2.28,2.96,3.88,3.96.63.33,1.19.78,1.65,1.32.46.56.52,1.35.16,1.98-.52.55-1.26.84-2.02.79-3.78.28-7.57.32-11.35.12-.48,0-.95-.08-1.4-.26-.44-.21-.79-.58-1.22-.82-.44-.18-.87-.38-1.28-.62-.47-.42-.79-.97-.93-1.58-.74-2.36-1-4.85-.74-7.31.27-2.44.89-3.28,3.39-2.49Z"/><path class="cls-9_family-1-25" d="M128.83,193.11s5.29.78,6.07,5.6c.78,4.82,1.86,21.45-4.67,23.67-6.54,2.22-12.77-5.45-14.01-8.56-1.24-3.11-5.45-23.04,12.61-20.7Z"/><path class="cls-8_family-1-25" d="M113.85,206.85c.36-1.4,1.92-2.05,3.28-2.55,2.05-.67,3.95-1.71,5.61-3.08,1.67-1.4,2.65-3.45,2.69-5.63.35,1.27,1.25,2.31,2.46,2.83,1.15.59,2.43.92,3.56,1.56,1.37.79,2.45,1.98,3.11,3.42.09.31.29.59.55.78.61.32,1.24-.4,1.48-1.04.59-2.07.33-4.29-.74-6.15-1.06-1.84-2.36-3.53-3.87-5.02-.74-.87-1.6-1.61-2.56-2.22-1.61-.81-3.45-1.05-5.22-.68-7.5,1.23-12.58,8.3-11.35,15.8.01.07.02.15.04.22"/></g></svg>